<?xml version="1.0" encoding="utf-8"?>
<!-- Generator: Adobe Illustrator 21.1.0, SVG Export Plug-In . SVG Version: 6.00 Build 0)  -->
<svg version="1.1" id="Слой_1" xmlns="http://www.w3.org/2000/svg" xmlns:xlink="http://www.w3.org/1999/xlink" x="0px" y="0px"
	 viewBox="0 0 330.5 328.1" style="enable-background:new 0 0 330.5 328.1;" xml:space="preserve">
<style type="text/css">
	.st0{fill:#FFFFFF;}
	.st1{fill:#3A3C44;stroke:#3A3C44;stroke-width:3;stroke-miterlimit:10;}
	.st2{fill:#8BAFDC;}
	.st3{fill:#3C4990;}
	.st4{fill:#3A3C44;stroke:#3A3C44;stroke-width:2;stroke-miterlimit:10;}
	.st5{fill:none;}
</style>
<title>map</title>
<g id="Layer_2">
	<g id="Layer_1-2">
		<path class="st0" d="M330.3,279.2L330.3,279.2c0-2.3,0-9.7,0-20.3s0-24.6,0-40.3c0-62.7,0-152.6,0-165.7c0.1-4.7-0.8-9.3-2.6-13.7
			c-2.3-5.1-6-9.5-10.7-12.5c-3.7-2.4-7.7-4.1-12-5.3c-1.1-0.3-3.1-0.8-5.9-1.5c-19-4.9-71.6-17.9-71.6-17.9l0,0
			c-0.2,0-0.4-0.1-0.6-0.1h-0.1l0,0c-0.2,0-0.5,0-0.7,0.1l0,0c0,0-60,18.9-69.3,21c0,0-6.8-19.4-30.9-19.4S94.3,20.3,94.3,20.3
			L36.6,1.9c-1.7-0.5-3.6,0.5-4.1,2.3c-0.1,0.3-0.1,0.6-0.1,0.9v157.4c0,0.1,0.1,0.1,0.1,0.1s0,0.2-0.1,0.3
			c-0.3,1.6,0.7,3.2,2.3,3.7l10.5,4.7c-9.3,3.9-49.1,26.6-45,80.8c4,52.5,47.3,76.1,75,76.1c68.1-0.1,89.9-50.4,92.1-67.6
			c20-7.3,63.3-18.4,63.3-18.4l-1.3,52.9c0,1.4,0.9,2.7,2.2,3.1c16.7,5.9,33.7,10.9,50.9,15.1c5,1.3,10.2,2,15.4,2.1
			c5.7,0.1,11.3-1.1,16.3-3.7c3.1-1.6,5.9-3.9,8.1-6.6c3-3.8,5.2-8.1,6.4-12.8c1.1-4.1,1.6-8.4,1.6-12.6
			C330.3,279.5,330.3,279.3,330.3,279.2z"/>
		<path class="st1" d="M160.8,40.3h-1.9c0,18.2-14.8,33-33,33c-18.2,0-33-14.8-33-33c0-18.2,14.8-33,33-33c8.7,0,17.1,3.5,23.3,9.7
			c6.2,6.2,9.7,14.6,9.7,23.4h3.7c0-20.3-16.5-36.8-36.8-36.8S89.1,20,89.1,40.3S105.6,77,125.9,77c9.8,0,19.1-3.9,26-10.8
			c6.9-6.9,10.8-16.2,10.8-26L160.8,40.3z"/>
		<path class="st2" d="M145.5,39.5c0,10.6-8.6,19.1-19.1,19.1s-19.1-8.6-19.1-19.1s8.6-19.1,19.1-19.1S145.5,28.9,145.5,39.5
			L145.5,39.5z"/>
		<path class="st3" d="M256.3,162.6c0,14.7-11.9,26.7-26.7,26.7S203,177.3,203,162.6s11.9-26.7,26.7-26.7h0
			C244.4,135.9,256.3,147.9,256.3,162.6z"/>
		<path class="st4" d="M155.2,243.3h-3.2c0,37.4-30.3,67.8-67.8,67.8c-37.4,0-67.8-30.3-67.8-67.8s30.3-67.8,67.8-67.8
			c18,0,35.2,7.1,47.9,19.9c12.7,12.7,19.9,29.9,19.9,47.9h6.3c0-40.9-33.2-74.1-74.1-74.1c-40.9,0-74.1,33.2-74.1,74.1
			c0,40.9,33.2,74.1,74.1,74.1c19.7,0,38.5-7.8,52.4-21.7c13.9-13.9,21.7-32.7,21.7-52.4L155.2,243.3z"/>
		<path class="st2" d="M118.8,243.3h-3.6c0,17-13.8,30.8-30.9,30.8s-30.8-13.8-30.8-30.9s13.8-30.8,30.9-30.8c8.2,0,16,3.3,21.8,9.1
			c5.8,5.8,9,13.6,9,21.8h7.3c0-21-17-38.1-38.1-38.1c-21,0-38.1,17-38.1,38.1s17,38.1,38.1,38.1c10.1,0,19.8-4,27-11.2
			c7.2-7.1,11.2-16.8,11.2-26.9L118.8,243.3z"/>
		<path class="st3" d="M95.5,243.3c0,6.2-5,11.2-11.2,11.2c-6.2,0-11.2-5-11.2-11.2c0-6.2,5-11.2,11.2-11.2c0,0,0,0,0,0
			C90.5,232.1,95.5,237.1,95.5,243.3C95.5,243.3,95.5,243.3,95.5,243.3z"/>
		<path class="st5" d="M323.1,102.3c0-26,0-46.1,0-51.7c0.1-3.7-0.6-7.3-2-10.7c-1.1-2.6-2.8-5-4.9-6.9c-3.9-3.7-9-5.6-12.9-6.7
			c-0.9-0.2-2.5-0.7-4.6-1.2l-7.8-2c-6.1-1.5-13.6-3.4-21.4-5.4l-37-9.2L232.3,77L323.1,102.3z"/>
		<path class="st4" d="M227.5,279.8l-0.3-0.1l-1,3h3.2v-2.3l-0.9-0.3L227.5,279.8z"/>
		<path class="st4" d="M329.5,269.5L329.5,269.5c0-2.3,0-9.3,0-19.6s0-23.8,0-39c0-60.7,0-147.7,0-160.4c0.1-4.5-0.8-9-2.5-13.2
			c-2.2-5-5.8-9.2-10.3-12.1c-3.6-2.3-7.5-4-11.6-5.1c-1.1-0.3-3-0.8-5.7-1.5C281,13.9,230.2,1.2,230.1,1.2h-0.1
			c1.4,0.3,2.5,1.6,2.5,3.1v4l37,9.2c7.7,1.9,15.3,3.8,21.4,5.4l7.8,2c2.1,0.5,3.7,1,4.6,1.2c3.9,1.1,9,3,12.9,6.7
			c2.1,1.9,3.8,4.3,4.9,6.9c1.4,3.4,2.1,7,2,10.7c0,5.6,0,25.8,0,51.7l4,1.1c1.7,0.4,2.8,2.1,2.4,3.8c-0.4,1.7-2.1,2.8-3.8,2.4
			c-0.1,0-0.2-0.1-0.3-0.1l-2.3-0.6c0,22,0,47.5,0,71.7l4,1.1c1.7,0.5,2.7,2.2,2.2,3.9c-0.5,1.7-2.2,2.7-3.9,2.2l0,0l-2.3-0.6v23.8
			c0,15.2,0,28.7,0,39c0,3.9,0,7.3,0,10.2c0.5,0.6,0.9,1.2,1.3,1.8c2.9,4.4,4.4,9.6,4.3,14.9c0,0.4,0,0.9,0,1.3
			c-0.1,1.7-1.7,3.1-3.4,2.9c-1.6-0.1-2.9-1.5-2.9-3.1c-0.1,0.5-0.2,0.9-0.3,1.3c-0.5,2.4-1.4,4.8-2.5,7c-1.7,3.4-4.3,6.3-7.5,8.3
			c-3.4,2.1-7.9,3.5-14,3.5c-4.5-0.1-9-0.7-13.4-1.8c-14.6-3.6-29-7.8-39.7-11c-5.4-1.6-9.8-3-12.9-4l-2.7-0.9v2.3h-3.2l1-3l0.3,0.1
			l1,0.3l0.9,0.3l0.2-18.3l59.4,16.1c1.7,0.5,3.4-0.5,3.9-2.2c0.5-1.7-0.5-3.4-2.2-3.9l0,0l0,0l-63.4-17.2c-1.7-0.5-3.4,0.5-3.9,2.2
			c-0.1,0.3-0.1,0.5-0.1,0.8l-0.3,24.8c0,1.4,0.9,2.6,2.2,3c0,0,28.5,9.5,58,16.8c4.9,1.3,9.9,1.9,14.9,2c5.5,0.1,10.9-1.1,15.8-3.5
			c3-1.6,5.7-3.8,7.9-6.4c2.9-3.6,5-7.9,6.2-12.4c1-4,1.5-8.1,1.5-12.1C329.5,269.8,329.5,269.7,329.5,269.5z"/>
		<path class="st4" d="M226.2,8.3v-4c0-1.5,1-2.8,2.5-3.1l0,0L168,15.2c1,1.9,1.8,3.9,2.6,5.9L226.2,8.3z"/>
		<path class="st4" d="M41.4,78.4c0.5-1.7,2.2-2.7,3.9-2.2c0,0,0,0,0,0l2.3,0.6V8.5l36.1,10.3c0.8-2,1.8-3.9,2.9-5.8L45.3,1.3
			c-1.7-0.5-3.4,0.5-3.9,2.2c-0.1,0.3-0.1,0.5-0.1,0.8v152.3c0,0.1,0.1,0.1,0.1,0.1c0.5-1.7,2.2-2.7,3.9-2.2c0,0,0,0,0,0l2.3,0.6
			V83.4l-4-1.1C41.9,81.9,40.9,80.1,41.4,78.4C41.4,78.4,41.4,78.4,41.4,78.4z"/>
		<path class="st4" d="M323.2,269.6L323.2,269.6c0-1.4,0-4.7,0-9.5c-1.6-2-3.5-3.9-5.5-5.4c-3.2-2.4-6.8-4.4-10.6-5.8
			c-1.6-0.6-3.3-1.1-5.1-1.5h0.1l-0.8,3.1l0.6-3.1h0.1l-70.1-18.8v2.5c0,1.8-1.4,3.2-3.2,3.2c-1.8,0-3.2-1.4-3.2-3.2c0,0,0,0,0,0
			v-2.4l-46.1,12.9c-1.7,0.5-2.7,2.2-2.2,3.9s2.2,2.7,3.9,2.2l0,0l0,0l47.5-13.3l71.7,19.2l0.2,0.1l0.4-1.8l-0.4,1.8l0,0l0.3,0.1
			c4.3,1.1,8.4,2.9,12,5.4c2.7,1.9,5,4.2,6.7,7c1.9,3.3,2.9,7,2.9,10.8c0,0.3,0,0.7,0,1v0.1c0.5-2.6,0.8-5.3,0.8-8L323.2,269.6z"/>
		<polygon class="st4" points="301,251.8 300.6,253.5 300.6,253.5 		"/>
		<polygon class="st4" points="300.6,253.5 300.6,253.5 300.6,253.5 		"/>
		<path class="st4" d="M301.3,250.4l0.8-3.1H302h-0.1L301.3,250.4z"/>
		<path class="st4" d="M325.4,281.2c1.7,0.1,3.2-1.3,3.3-3c0-0.4,0-0.9,0-1.3c0.1-5.3-1.4-10.5-4.3-14.9c-0.4-0.6-0.9-1.2-1.3-1.8
			c0,4.8,0,8,0,9.5l0,0v0.4c0,2.7-0.3,5.4-0.8,8C322.3,279.7,323.7,281.2,325.4,281.2z"/>
		<path class="st4" d="M226,83.1l-0.1,43.4c1.1-0.1,2.3-0.2,3.4-0.2c1,0,2,0.1,2.9,0.1l0.1-42.9l-3.7-1L226,83.1z"/>
		<path class="st4" d="M229.4,1.1c-0.2,0-0.5,0-0.7,0.1C228.9,1.2,229.2,1.1,229.4,1.1z"/>
		<path class="st4" d="M229.6,227.9l2.4,0.6l0.1-30.8c-0.9,0.1-1.8,0.1-2.7,0.1c-1.2,0-2.4-0.1-3.6-0.2l-0.1,30.9l2.3-0.6
			C228.4,227.7,229,227.7,229.6,227.9z"/>
		<path class="st4" d="M229.4,7.6l-3.1,0.7L226,76.6l2-0.4c0.5-0.1,1-0.1,1.5,0l2.8,0.8l0.2-68.6l-1-0.3L229.4,7.6z"/>
		<path class="st4" d="M229.4,4.3l-0.8,3.1l0.7,0.2l0.7-0.2L229.4,4.3z"/>
		<path class="st4" d="M226.2,4.3v4l3.1-0.7l-0.7-0.2l0.8-3.1l0.7,3.1l-0.7,0.2l2.1,0.5l1,0.3v-4c0-1.5-1-2.8-2.5-3.1
			c-0.2,0-0.4-0.1-0.6-0.1h-0.1c-0.2,0-0.5,0-0.7,0.1C227.3,1.6,226.2,2.8,226.2,4.3z"/>
		<path class="st4" d="M228.7,234.1c1.7,0,3.2-1.4,3.2-3.1c0,0,0,0,0,0v-2.4l-2.4-0.6c-0.5-0.2-1.1-0.2-1.7,0l-2.3,0.6v2.4
			C225.5,232.7,227,234.1,228.7,234.1z"/>
		<path class="st4" d="M126.2,117.4c-1.8,0-3.2,1.4-3.2,3.2v37.3c0,1.8,1.4,3.2,3.2,3.2c1.8,0,3.2-1.4,3.2-3.2v-37.3
			C129.4,118.8,128,117.4,126.2,117.4L126.2,117.4z"/>
		<path class="st4" d="M126.3,98.9l-78.7-22v6.6l77.8,21.7c0.5,0.1,1,0.1,1.6,0L226,83.1v-6.5L126.3,98.9z"/>
		<path class="st4" d="M232.3,77v6.6l90.8,25.3v-6.6L232.3,77z"/>
		<path class="st4" d="M45.3,76.2c-1.7-0.5-3.5,0.4-4,2s0.4,3.5,2,4c0.1,0,0.2,0,0.2,0.1l4,1.1v-6.6L45.3,76.2z"/>
		<path class="st4" d="M329.4,107.3c0.5-1.7-0.5-3.4-2.2-3.9c0,0,0,0,0,0l-4-1.1v6.6l2.3,0.6C327.2,109.9,328.9,109,329.4,107.3
			C329.4,107.3,329.4,107.3,329.4,107.3z"/>
		<path class="st4" d="M229.6,76.2c-0.5-0.1-1-0.1-1.5,0l-2,0.4v6.5l2.6-0.6l3.7,1V77L229.6,76.2z"/>
		<path class="st4" d="M193.5,162.1L193.5,162.1l-59.1,13.2c2.3,1.6,4.5,3.2,6.6,5l53.2-11.9C193.7,166.3,193.5,164.2,193.5,162.1z"
			/>
		<path class="st4" d="M44.4,159.8c-1.6,0-2.9-1.2-3.1-2.8c-0.3,1.6,0.7,3.1,2.3,3.6l14.5,4c4-1.4,8.1-2.4,12.3-3.2l-22.7-6.3v1.5
			C47.6,158.3,46.2,159.8,44.4,159.8z"/>
		<path class="st4" d="M265,164.3c-0.1,2.1-0.4,4.2-1,6.3l59.1,16.4c0-2.2,0-4.4,0-6.6L265,164.3z"/>
		<path class="st4" d="M329.3,185.5c0.5-1.7-0.5-3.4-2.2-3.9l-4-1.1c0,2.2,0,4.4,0,6.6l2.3,0.6C327.1,188.2,328.9,187.2,329.3,185.5
			z"/>
		<path class="st4" d="M41.3,156.6c0,0.1,0,0.2-0.1,0.3c0.2,1.7,1.8,2.9,3.6,2.7c1.5-0.2,2.7-1.5,2.7-3.1v-1.5l-2.3-0.6
			C43.6,154,41.3,156.6,41.3,156.6z"/>
	</g>
</g>
</svg>
